<mxfile host="Electron" modified="2023-04-21T11:17:57.264Z" agent="Mozilla/5.0 (Windows NT 10.0; Win64; x64) AppleWebKit/537.36 (KHTML, like Gecko) draw.io/21.2.1 Chrome/112.0.5615.87 Electron/24.1.2 Safari/537.36" etag="NJvX6J1zwdiExgClk6Uv" version="21.2.1" type="device">
  <diagram name="Page-1" id="R0YZM0QswhvQu5ZdeoU2">
    <mxGraphModel dx="1434" dy="870" grid="1" gridSize="10" guides="1" tooltips="1" connect="1" arrows="1" fold="1" page="1" pageScale="1" pageWidth="850" pageHeight="1100" math="0" shadow="0">
      <root>
        <mxCell id="0" />
        <mxCell id="1" parent="0" />
        <mxCell id="DS0aTNGZ2Fv6DF-EMrfK-6" value="providing data" style="edgeStyle=orthogonalEdgeStyle;rounded=0;orthogonalLoop=1;jettySize=auto;html=1;exitX=1;exitY=0.25;exitDx=0;exitDy=0;entryX=0.053;entryY=0.287;entryDx=0;entryDy=0;entryPerimeter=0;" edge="1" parent="1" source="DS0aTNGZ2Fv6DF-EMrfK-2" target="DS0aTNGZ2Fv6DF-EMrfK-3">
          <mxGeometry relative="1" as="geometry" />
        </mxCell>
        <mxCell id="DS0aTNGZ2Fv6DF-EMrfK-2" value="Municipalities / cities" style="rounded=0;whiteSpace=wrap;html=1;" vertex="1" parent="1">
          <mxGeometry x="80" y="240" width="120" height="60" as="geometry" />
        </mxCell>
        <mxCell id="DS0aTNGZ2Fv6DF-EMrfK-8" value="fetching data" style="edgeStyle=orthogonalEdgeStyle;rounded=0;orthogonalLoop=1;jettySize=auto;html=1;exitX=0;exitY=0.5;exitDx=0;exitDy=0;entryX=1;entryY=0.75;entryDx=0;entryDy=0;" edge="1" parent="1" source="DS0aTNGZ2Fv6DF-EMrfK-3" target="DS0aTNGZ2Fv6DF-EMrfK-2">
          <mxGeometry relative="1" as="geometry" />
        </mxCell>
        <mxCell id="DS0aTNGZ2Fv6DF-EMrfK-10" value="processed stacks" style="edgeStyle=orthogonalEdgeStyle;rounded=0;orthogonalLoop=1;jettySize=auto;html=1;exitX=1;exitY=0;exitDx=0;exitDy=0;entryX=0;entryY=0.5;entryDx=0;entryDy=0;" edge="1" parent="1" source="DS0aTNGZ2Fv6DF-EMrfK-3" target="DS0aTNGZ2Fv6DF-EMrfK-5">
          <mxGeometry relative="1" as="geometry" />
        </mxCell>
        <mxCell id="DS0aTNGZ2Fv6DF-EMrfK-3" value="nDOM/RGBI stack&lt;br&gt;processing pipeline" style="ellipse;whiteSpace=wrap;html=1;" vertex="1" parent="1">
          <mxGeometry x="340" y="210" width="170" height="150" as="geometry" />
        </mxCell>
        <mxCell id="DS0aTNGZ2Fv6DF-EMrfK-11" value="runs / supervises system" style="edgeStyle=orthogonalEdgeStyle;rounded=0;orthogonalLoop=1;jettySize=auto;html=1;exitX=0;exitY=0.5;exitDx=0;exitDy=0;entryX=1;entryY=1;entryDx=0;entryDy=0;" edge="1" parent="1" source="DS0aTNGZ2Fv6DF-EMrfK-4" target="DS0aTNGZ2Fv6DF-EMrfK-3">
          <mxGeometry relative="1" as="geometry" />
        </mxCell>
        <mxCell id="DS0aTNGZ2Fv6DF-EMrfK-4" value="LUP employee&lt;br&gt;Processing" style="rounded=0;whiteSpace=wrap;html=1;" vertex="1" parent="1">
          <mxGeometry x="630" y="310" width="120" height="60" as="geometry" />
        </mxCell>
        <mxCell id="DS0aTNGZ2Fv6DF-EMrfK-5" value="LUP employee&lt;br&gt;Analysis" style="rounded=0;whiteSpace=wrap;html=1;" vertex="1" parent="1">
          <mxGeometry x="630" y="200" width="120" height="60" as="geometry" />
        </mxCell>
        <mxCell id="DS0aTNGZ2Fv6DF-EMrfK-13" value="updates system" style="edgeStyle=orthogonalEdgeStyle;rounded=0;orthogonalLoop=1;jettySize=auto;html=1;exitX=0.5;exitY=0;exitDx=0;exitDy=0;entryX=0.5;entryY=1;entryDx=0;entryDy=0;" edge="1" parent="1" source="DS0aTNGZ2Fv6DF-EMrfK-12" target="DS0aTNGZ2Fv6DF-EMrfK-3">
          <mxGeometry relative="1" as="geometry" />
        </mxCell>
        <mxCell id="DS0aTNGZ2Fv6DF-EMrfK-12" value="LUP employee&lt;br&gt;IT" style="rounded=0;whiteSpace=wrap;html=1;" vertex="1" parent="1">
          <mxGeometry x="365" y="430" width="120" height="60" as="geometry" />
        </mxCell>
      </root>
    </mxGraphModel>
  </diagram>
</mxfile>
